<?xml version="1.0" encoding="utf-8"?>
<!-- Generator: Adobe Illustrator 18.1.1, SVG Export Plug-In . SVG Version: 6.00 Build 0)  -->
<svg version="1.1" xmlns="http://www.w3.org/2000/svg" xmlns:xlink="http://www.w3.org/1999/xlink" x="0px" y="0px"
	 viewBox="0 0 159.6 159.6" enable-background="new 0 0 159.6 159.6" xml:space="preserve">
<g id="background">
</g>
<g id="badges_1_">
	<g id="badges">
		<g>
			<g>
				<path fill="#FFFFFF" d="M79.8,159.6c-44,0-79.8-35.8-79.8-79.8C0,35.8,35.8,0,79.8,0c44,0,79.8,35.8,79.8,79.8
					C159.6,123.8,123.8,159.6,79.8,159.6L79.8,159.6z M79.8,2.1C37,2.1,2.1,37,2.1,79.8c0,42.8,34.9,77.7,77.7,77.7
					c42.8,0,77.7-34.9,77.7-77.7C157.5,37,122.6,2.1,79.8,2.1L79.8,2.1z"/>
			</g>
			<g>
				<polygon fill="#FFFFFF" points="108.2,48.7 107.8,50.8 115.1,52.2 47,97.5 40.7,95.6 40.1,97.6 44.7,99 43.2,100 43.2,99.9 
					36.7,97.8 36.1,99.9 41.1,101.4 39.6,102.4 33.6,100.5 32.9,102.6 38.6,104.3 37.9,110.1 40.1,110.3 40.7,104.2 42.1,103.3 
					41.7,108.1 43.9,108.3 44.4,102 44.2,101.9 45.9,100.8 45.4,105.6 47.6,105.8 48.2,99.3 116.5,53.9 114.9,61.8 117,62.2 
					119.3,50.9 				"/>
				<polygon fill="#FFFFFF" points="50.9,48.7 51.3,50.8 44,52.2 112.1,97.5 118.4,95.6 119,97.6 114.4,99 115.9,100 115.8,99.9 
					122.3,97.8 123,99.9 118,101.4 119.4,102.4 125.5,100.5 126.1,102.6 120.5,104.3 121.2,110.1 119,110.3 118.3,104.2 
					116.9,103.3 117.4,108.1 115.2,108.3 114.7,102 114.9,101.9 113.2,100.8 113.7,105.6 111.5,105.8 110.9,99.3 42.6,53.9 
					44.2,61.8 42.1,62.2 39.8,50.9 				"/>
			</g>
			<g>
				<polygon fill="#FFFFFF" points="14.8,78.3 13.4,75.8 12.1,78.4 9.3,78.9 11.3,80.9 10.9,83.8 13.5,82.5 16.1,83.8 15.7,80.9 
					17.7,78.8 				"/>
				<polygon fill="#FFFFFF" points="149,78.8 146.1,78.3 144.7,75.8 143.4,78.4 140.6,78.9 142.6,80.9 142.2,83.8 144.8,82.5 
					147.4,83.8 147,80.9 				"/>
			</g>
			<g id="text_34_">
				
					<text transform="matrix(1 0 0 1 98.7969 83.5303)" fill="#FFFFFF" font-family="'BrandonGrotesque-Black'" font-size="12.6" letter-spacing="1">SK</text>
				
					<text transform="matrix(1 0 0 1 41.0967 83.5303)" fill="#FFFFFF" font-family="'BrandonGrotesque-Black'" font-size="12.6" letter-spacing="1">DU</text>
				<path id="SVGID_x5F_1_x5F_" fill="none" d="M30.2,35.9c23.7-27.4,65.1-30.4,92.5-6.7c27.4,23.7,30.4,65.1,6.7,92.5
					c-23.7,27.4-65.1,30.4-92.5,6.7C9.5,104.8,6.5,63.3,30.2,35.9z"/>
				<text>				<textPath  xlink:href="#SVGID_x5F_1_x5F_" startOffset="100%">
<tspan  fill="#FFFFFF" font-family="'GearedSlab-Regular'" font-size="17" letter-spacing="77">   NETWORK</tspan>				</textPath>
</text>
				<path id="SVGID_x5F_2_x5F_" fill="none" d="M125.2,34.5c26.2,25.1,27.1,66.6,2,92.8c-25.1,26.2-66.6,27.1-92.8,2
					c-26.2-25.1-27.1-66.6-2-92.8C57.5,10.3,99,9.5,125.2,34.5z"/>
				<text>				<textPath  xlink:href="#SVGID_x5F_2_x5F_" startOffset="100%">
<tspan  fill="#FFFFFF" font-family="'GearedSlab-Regular'" font-size="17" letter-spacing="77">  NIGHTTIMING</tspan><tspan  fill="#FFFFFF" font-family="'Futura-Medium'" font-size="15.7501" letter-spacing="77"> </tspan><tspan  fill="#FFFFFF" font-family="'Haymaker'" font-size="16.8001" letter-spacing="77"> </tspan>				</textPath>
</text>
			</g>
			<path fill="#FFFFFF" d="M79.3,47.6c0.3,0,0.5-0.2,0.5-0.5v-4c0-0.3-0.2-0.5-0.5-0.5c-0.3,0-0.5,0.2-0.5,0.5v4
				C78.8,47.4,79,47.6,79.3,47.6z"/>
			<path fill="#FFFFFF" d="M90.1,47.4l-2.8,2.8c-0.2,0.2-0.2,0.5,0,0.7c0.1,0.1,0.2,0.1,0.4,0.1c0.1,0,0.3,0,0.4-0.1l2.8-2.8
				c0.2-0.2,0.2-0.5,0-0.7C90.6,47.2,90.2,47.2,90.1,47.4z"/>
			<path fill="#FFFFFF" d="M68.8,47.4c-0.2,0.2-0.2,0.5,0,0.7l2.8,2.8c0.1,0.1,0.2,0.1,0.4,0.1s0.3,0,0.4-0.1c0.2-0.2,0.2-0.5,0-0.7
				l-2.8-2.8C69.3,47.2,69,47.2,68.8,47.4z"/>
			<path fill="#FFFFFF" d="M92.8,58.1h-5c-0.1-4.3-3.7-7.8-8-7.8c-4.3,0-7.9,3.5-8,7.8h-5c-0.3,0-0.5,0.2-0.5,0.5
				c0,0.3,0.2,0.5,0.5,0.5h26c0.3,0,0.5-0.2,0.5-0.5C93.3,58.3,93.1,58.1,92.8,58.1z M79.8,51.4c3.8,0,6.9,3,7,6.8h-14
				C72.9,54.4,76,51.4,79.8,51.4z"/>
			<g>
				<path fill="#FFFFFF" d="M79.5,111.6c-3.8,0-8.3-3.1-8.3-6.8v-3.5c0-0.6,0.5-1,1-1H74v0.9h-1.7c-0.1,0-0.1,0.1-0.1,0.1v3.5
					c0,3.2,4.1,5.9,7.4,5.9c3.3,0,7.4-2.7,7.4-5.9v-3.6l-1.6,0v-0.9h1.6c0.5,0,0.9,0.4,0.9,0.9v3.6
					C87.8,108.6,83.3,111.6,79.5,111.6z"/>
			</g>
			<g>
				<path fill="#FFFFFF" d="M83.1,102.2c-0.1-0.3-0.2-0.6-0.3-0.7h-7.9c-0.8,0-1.5-0.7-1.5-1.5s0.7-1.5,1.5-1.5h9.6
					c0.8,0,1.5,0.7,1.5,1.5v0.5h-0.6V100h-0.3c0-0.3-0.3-0.6-0.6-0.6h-9.6c-0.3,0-0.6,0.3-0.6,0.6s0.3,0.6,0.6,0.6H83
					c0.2,0,0.6,0,1.1,1.4L83.1,102.2z"/>
			</g>
			<g>
				<path fill="#FFFFFF" d="M84.5,103c-0.8,0-1.5-0.7-1.5-1.5h0.9c0,0.3,0.3,0.6,0.6,0.6c0.3,0,0.6-0.3,0.6-0.6V100
					c0-0.3-0.3-0.6-0.6-0.6v-0.9c0.8,0,1.5,0.7,1.5,1.5v1.5C86,102.3,85.3,103,84.5,103z"/>
			</g>
			<g>
				<path fill="#FFFFFF" d="M76.9,97c-0.3,0-0.5-0.2-0.5-0.5v-2.4c0-0.3,0.2-0.5,0.5-0.5s0.5,0.2,0.5,0.5v2.4
					C77.4,96.8,77.2,97,76.9,97z"/>
			</g>
			<g>
				<path fill="#FFFFFF" d="M82.1,97c-0.3,0-0.5-0.2-0.5-0.5v-2.4c0-0.3,0.2-0.5,0.5-0.5c0.3,0,0.5,0.2,0.5,0.5v2.4
					C82.6,96.8,82.4,97,82.1,97z"/>
			</g>
			<g>
				<path fill="#FFFFFF" d="M79.5,97c-0.3,0-0.5-0.2-0.5-0.5v-4.8c0-0.3,0.2-0.5,0.5-0.5s0.5,0.2,0.5,0.5v4.8
					C79.9,96.8,79.7,97,79.5,97z"/>
			</g>
			<g>
				<path fill="#FFFFFF" d="M71.4,107.6c-1.7,0-3.1-1.4-3.1-3.1c0-1.7,1.4-3.1,3.1-3.1c0.1,0,0.2,0,0.3,0c0.3,0,0.4,0.2,0.4,0.5
					c0,0.3-0.2,0.4-0.5,0.4c-0.1,0-0.1,0-0.2,0c-1.2,0-2.2,1-2.2,2.2c0,1.2,1,2.2,2.2,2.2c0.2,0,0.5,0,0.7-0.1
					c0.2-0.1,0.5,0.1,0.6,0.3c0.1,0.2-0.1,0.5-0.3,0.6C72,107.6,71.7,107.6,71.4,107.6z"/>
			</g>
		</g>
	</g>
</g>
<g id="logo_1_">
</g>
</svg>
