<?xml version="1.0" encoding="utf-8"?>
<!-- Generator: Adobe Illustrator 18.1.1, SVG Export Plug-In . SVG Version: 6.00 Build 0)  -->
<svg version="1.1" xmlns="http://www.w3.org/2000/svg" xmlns:xlink="http://www.w3.org/1999/xlink" x="0px" y="0px"
	 viewBox="0 0 159.6 159.6" enable-background="new 0 0 159.6 159.6" xml:space="preserve">
<g id="background">
</g>
<g id="badges_1_">
	<g id="badges">
		<g>
			<g>
				<path fill="#383433" d="M79.8,159.6c-44,0-79.8-35.8-79.8-79.8C0,35.8,35.8,0,79.8,0c44,0,79.8,35.8,79.8,79.8
					C159.6,123.8,123.8,159.6,79.8,159.6L79.8,159.6z M79.8,2.1C37,2.1,2.1,37,2.1,79.8c0,42.8,34.9,77.7,77.7,77.7
					c42.8,0,77.7-34.9,77.7-77.7C157.5,37,122.6,2.1,79.8,2.1L79.8,2.1z"/>
			</g>
			<g>
				<polygon fill="#383433" points="108.2,48.7 107.8,50.8 115.1,52.2 47,97.5 40.7,95.6 40.1,97.6 44.7,99 43.2,100 43.2,99.9 
					36.7,97.8 36.1,99.9 41.1,101.4 39.6,102.4 33.6,100.5 32.9,102.6 38.6,104.3 37.9,110.1 40.1,110.3 40.7,104.2 42.1,103.3 
					41.7,108.1 43.9,108.3 44.4,102 44.2,101.9 45.9,100.8 45.4,105.6 47.6,105.8 48.2,99.3 116.5,53.9 114.9,61.8 117,62.2 
					119.3,50.9 				"/>
				<polygon fill="#383433" points="50.9,48.7 51.3,50.8 44,52.2 112.1,97.5 118.4,95.6 119,97.6 114.4,99 115.9,100 115.8,99.9 
					122.3,97.8 123,99.9 118,101.4 119.4,102.4 125.5,100.5 126.1,102.6 120.5,104.3 121.2,110.1 119,110.3 118.3,104.2 
					116.9,103.3 117.4,108.1 115.2,108.3 114.7,102 114.9,101.9 113.2,100.8 113.7,105.6 111.5,105.8 110.9,99.3 42.6,53.9 
					44.2,61.8 42.1,62.2 39.8,50.9 				"/>
			</g>
			<g>
				<polygon fill="#383433" points="14.8,78.3 13.4,75.8 12.1,78.4 9.3,78.9 11.3,80.9 10.9,83.8 13.5,82.5 16.1,83.8 15.7,80.9 
					17.7,78.8 				"/>
				<polygon fill="#383433" points="149,78.8 146.1,78.3 144.7,75.8 143.4,78.4 140.6,78.9 142.6,80.9 142.2,83.8 144.8,82.5 
					147.4,83.8 147,80.9 				"/>
			</g>
			<g>
				<path fill="#383433" d="M99.4,82.3l0.6-1c0.1-0.2,0.3-0.1,0.4-0.1c0.1,0,1,0.7,1.8,0.7c0.5,0,0.9-0.3,0.9-0.8
					c0-0.5-0.4-0.9-1.3-1.3c-1.1-0.4-2.4-1.3-2.4-2.8c0-1.2,1-2.5,2.9-2.5c1.3,0,2.3,0.7,2.7,0.9c0.2,0.1,0.1,0.3,0.1,0.4l-0.6,1
					c-0.1,0.1-0.3,0.3-0.4,0.2c-0.1-0.1-1-0.8-1.8-0.8c-0.5,0-0.8,0.3-0.8,0.6c0,0.5,0.4,0.8,1.4,1.2c1,0.4,2.5,1.2,2.5,2.9
					c0,1.3-1.1,2.6-3,2.6c-1.6,0-2.5-0.7-2.8-1C99.3,82.6,99.3,82.5,99.4,82.3z"/>
				<path fill="#383433" d="M108.7,75c0-0.2,0.1-0.3,0.3-0.3h1.5c0.2,0,0.3,0.1,0.3,0.3v3.3l2.8-3.5c0-0.1,0.2-0.1,0.2-0.1h1.6
					c0.2,0,0.4,0.3,0.2,0.5l-2.9,3.7l3.2,4.2c0.1,0.2,0,0.5-0.2,0.5h-1.7c-0.1,0-0.2-0.1-0.2-0.1l-2.9-4v3.8c0,0.2-0.1,0.3-0.3,0.3
					H109c-0.2,0-0.3-0.1-0.3-0.3V75z"/>
			</g>
			<g>
				<path fill="#383433" d="M42.2,74.9c0-0.1,0.1-0.2,0.2-0.2h3.1c2.4,0,4.4,2,4.4,4.4c0,2.4-2,4.4-4.4,4.4h-3.1
					c-0.1,0-0.2-0.1-0.2-0.2V74.9z M45.4,81.7c1.4,0,2.5-1.1,2.5-2.6c0-1.4-1-2.5-2.5-2.5h-1.2v5.1H45.4z"/>
				<path fill="#383433" d="M53.2,74.9c0-0.1,0.1-0.2,0.2-0.2H55c0.1,0,0.2,0.1,0.2,0.2v5.1c0,0.9,0.7,1.6,1.5,1.6
					c0.9,0,1.6-0.7,1.6-1.6v-5.1c0-0.1,0.1-0.2,0.2-0.2h1.5c0.1,0,0.2,0.1,0.2,0.2v5.2c0,1.9-1.6,3.5-3.6,3.5c-2,0-3.6-1.6-3.6-3.5
					V74.9z"/>
			</g>
			<g>
				<path fill="#383433" d="M60.8,135.1l-0.2,0.5c-0.1,0.2-0.2,0.3-0.3,0.4c-0.1,0.1-0.3,0.1-0.4,0.2c-0.1,0-0.1,0.1-0.2,0.1
					c0,0-0.1,0.1-0.1,0.2l-4,9.9c0,0.1-0.1,0.2-0.2,0.2s-0.2,0.1-0.3,0l-0.9-0.4c-0.1-0.1-0.2-0.2-0.2-0.3c0-0.1,0-0.3,0-0.5
					c0-0.1,0-0.3,0-0.7s0.1-0.9,0.1-1.5c0-0.6,0.1-1.2,0.1-1.8c0-0.7,0.1-1.3,0.1-1.8c0-0.6,0.1-1,0.1-1.4c0-0.4,0-0.6,0.1-0.6
					c0,0,0,0,0-0.1c0,0,0,0,0,0.1l-2.4,6c0,0.1-0.1,0.2,0,0.3c0,0.1,0,0.1,0.1,0.2c0.1,0.1,0.1,0.2,0.1,0.4c0,0.1,0,0.3-0.1,0.5
					l-0.2,0.5l-2.5-1l0.2-0.5c0.1-0.2,0.2-0.3,0.3-0.4c0.1-0.1,0.3-0.1,0.4-0.2c0.1,0,0.1,0,0.2-0.1c0,0,0.1-0.1,0.1-0.2l3.6-8.9
					c-0.1-0.1-0.2-0.2-0.2-0.3c0-0.1-0.1-0.2-0.1-0.3c0-0.1,0-0.3,0.1-0.5l0.2-0.5l1.8,0.7c0.1,0.1,0.2,0.1,0.2,0.2
					c0,0.1,0.1,0.2,0,0.3c0,0,0,0.2-0.1,0.6c0,0.4-0.1,0.8-0.1,1.4c0,0.6-0.1,1.2-0.2,1.8c-0.1,0.7-0.1,1.3-0.2,1.9
					s-0.1,1.1-0.1,1.6c0,0.5-0.1,0.8-0.1,0.9c0,0,0,0.1,0,0.1c0,0,0,0,0,0l2.5-6.2c0-0.1,0.1-0.2,0-0.2s0-0.1-0.1-0.2
					c-0.1-0.1-0.1-0.2-0.1-0.4c0-0.2,0-0.3,0.1-0.5l0.2-0.5L60.8,135.1z"/>
				<path fill="#383433" d="M63.7,137.4c-0.1,0-0.1,0.1-0.1,0.2l-0.9,3.4c0,0.2,0,0.3,0.2,0.3l2,0.5c0.1,0,0.1,0,0.2,0.1
					c0.1,0.1,0.1,0.1,0,0.2l-0.2,0.9c0,0.2-0.1,0.2-0.3,0.2l-2-0.5c-0.2,0-0.3,0-0.3,0.2l-1,3.8c0,0.2,0,0.2,0.1,0.3l1.6,0.4
					c0.1,0,0.2,0,0.2-0.2c0-0.2,0.2-0.3,0.3-0.4c0.2-0.1,0.4-0.1,0.6,0l0.6,0.2l-0.4,1.7c0,0.1-0.1,0.2-0.2,0.3
					c-0.1,0.1-0.2,0.1-0.3,0l-1-0.3l-3.2-0.8l-1-0.3l0.1-0.4c0.1-0.2,0.1-0.4,0.2-0.5c0.1-0.1,0.2-0.2,0.3-0.2
					c0.2,0,0.3-0.1,0.3-0.3l2.4-9.1c0-0.1,0-0.2,0-0.2c0-0.1-0.1-0.1-0.1-0.2c-0.1-0.1-0.2-0.2-0.2-0.3c0-0.1,0-0.3,0-0.5l0.1-0.5
					l5.2,1.4c0.1,0,0.2,0.1,0.3,0.2c0.1,0.1,0.1,0.2,0.1,0.3L67,139l-0.6-0.2c-0.2-0.1-0.4-0.1-0.6-0.2c-0.1-0.1-0.2-0.2-0.1-0.4
					c0-0.1,0-0.1,0-0.2c0-0.1-0.1-0.1-0.2-0.1l-1.6-0.4C63.9,137.4,63.8,137.4,63.7,137.4z"/>
				<path fill="#383433" d="M75.8,138.2c0.1,0.1,0.1,0.3,0.1,0.6l-0.1,0.5l-0.1,0.9l-0.9-0.1c-0.2,0-0.3-0.1-0.4-0.2
					c-0.1-0.1-0.1-0.3-0.1-0.4c0-0.1,0-0.2-0.2-0.2l-0.8-0.1c-0.1,0-0.1,0-0.2,0c-0.1,0-0.1,0.1-0.1,0.2l-1.2,9.3c0,0.1,0,0.2,0,0.2
					s0.1,0.1,0.1,0.2c0.1,0.1,0.2,0.2,0.2,0.3c0.1,0.1,0.1,0.3,0.1,0.5l-0.1,0.5l-2.8-0.3l0.1-0.5c0-0.2,0.1-0.3,0.2-0.5
					c0.1-0.1,0.2-0.2,0.3-0.3c0.1,0,0.1-0.1,0.1-0.1c0,0,0.1-0.1,0.1-0.2l1.2-9.4c0-0.1,0-0.1-0.1-0.2c-0.1,0-0.1-0.1-0.2-0.1
					l-0.7-0.1c0,0-0.1,0-0.2,0c-0.1,0-0.1,0.1-0.1,0.2c0,0.2-0.1,0.3-0.2,0.4c-0.1,0.1-0.3,0.1-0.6,0.1l-0.8-0.1l0.1-1l0.1-0.5
					c0-0.3,0.1-0.4,0.3-0.5c0.2-0.1,0.4-0.1,0.7-0.1l5.5,0.7C75.5,138,75.7,138.1,75.8,138.2z"/>
				<path fill="#383433" d="M88.9,137.7l0,0.5c0,0.2,0,0.4-0.1,0.5c-0.1,0.1-0.2,0.2-0.2,0.3c-0.1,0-0.1,0.1-0.1,0.2
					c0,0.1-0.1,0.1-0.1,0.2c-0.1,2-0.2,3.7-0.3,5.3c0,0.7-0.1,1.3-0.1,2c0,0.6-0.1,1.2-0.1,1.7c0,0.5-0.1,0.9-0.1,1.2
					c0,0.3,0,0.5,0,0.5c0,0.1,0,0.2-0.1,0.3c-0.1,0.1-0.1,0.1-0.3,0.1l-1.9,0.1c-0.1,0-0.2,0-0.3-0.1c-0.1-0.1-0.1-0.2-0.2-0.3
					l-1.8-8.2l-1,8.3c0,0.2-0.1,0.3-0.2,0.3c-0.1,0.1-0.2,0.1-0.3,0.1l-1.9,0.1c-0.1,0-0.2,0-0.3-0.1s-0.1-0.2-0.1-0.3
					c0,0,0-0.2-0.1-0.5c-0.1-0.3-0.1-0.7-0.2-1.2c-0.1-0.5-0.2-1.1-0.3-1.7c-0.1-0.6-0.2-1.3-0.3-1.9c-0.3-1.5-0.6-3.3-0.9-5.2
					c0-0.1-0.1-0.2-0.1-0.2c0-0.1-0.1-0.1-0.2-0.1c-0.1-0.1-0.2-0.1-0.3-0.3c-0.1-0.1-0.1-0.3-0.1-0.5l0-0.5l2.8-0.1l0,0.5
					c0,0.2,0,0.4-0.1,0.5c-0.1,0.1-0.1,0.2-0.2,0.3c-0.1,0-0.1,0.1-0.1,0.1c0,0,0,0.1,0,0.2c0.3,1.8,0.5,3.3,0.8,4.7
					c0.1,0.6,0.2,1.2,0.3,1.7s0.2,1.1,0.3,1.5c0.1,0.4,0.1,0.8,0.2,1.1s0.1,0.4,0.1,0.4c0.1-0.8,0.2-1.6,0.2-2.3
					c0.1-0.7,0.2-1.4,0.2-2.2s0.2-1.6,0.3-2.4c0.1-0.8,0.2-1.5,0.3-2.2c0.1-0.7,0.2-1.2,0.2-1.6c0-0.1,0.1-0.3,0.3-0.3
					s0.4-0.1,0.5-0.1c0.2,0,0.4,0,0.6,0.1c0.2,0.1,0.3,0.2,0.3,0.3c0.1,0.4,0.2,0.9,0.4,1.6c0.2,0.7,0.3,1.4,0.5,2.2
					c0.2,0.8,0.4,1.6,0.5,2.4c0.2,0.8,0.3,1.5,0.5,2.2c0.1,0.7,0.3,1.4,0.5,2.2c0,0,0-0.1,0-0.4s0-0.6,0.1-1.1s0.1-1,0.1-1.5
					c0-0.6,0.1-1.2,0.1-1.7c0.1-1.4,0.2-3,0.3-4.7c0-0.1,0-0.2,0-0.2s-0.1-0.1-0.1-0.1c-0.1-0.1-0.2-0.1-0.3-0.3
					c-0.1-0.1-0.1-0.3-0.1-0.5l0-0.5L88.9,137.7z"/>
				<path fill="#383433" d="M95.7,149.2c-0.4,0.1-0.8,0.1-1.2,0.1c-0.4,0-0.7-0.1-1-0.3c-0.3-0.1-0.6-0.4-0.8-0.6
					c-0.2-0.3-0.4-0.6-0.5-1.1l-1.7-7.7c-0.1-0.4-0.1-0.8,0-1.2c0.1-0.3,0.2-0.7,0.4-0.9c0.2-0.3,0.5-0.5,0.8-0.7
					c0.3-0.2,0.7-0.3,1.1-0.4c0.4-0.1,0.8-0.1,1.2-0.1c0.4,0,0.7,0.1,1,0.2c0.3,0.1,0.6,0.4,0.8,0.6c0.2,0.3,0.4,0.6,0.5,1.1L98,146
					c0.1,0.4,0.1,0.8,0,1.2c-0.1,0.3-0.2,0.7-0.4,0.9c-0.2,0.3-0.5,0.5-0.8,0.7C96.5,148.9,96.1,149.1,95.7,149.2z M94.7,138.8
					c0-0.2-0.1-0.4-0.2-0.5c-0.1-0.1-0.2-0.2-0.4-0.3s-0.3-0.1-0.5-0.1c-0.2,0-0.3,0-0.5,0c-0.2,0-0.3,0.1-0.4,0.2
					c-0.1,0.1-0.3,0.2-0.4,0.3c-0.1,0.1-0.2,0.3-0.2,0.4c0,0.2,0,0.4,0,0.6l1.7,7.6c0,0.2,0.1,0.4,0.2,0.5c0.1,0.1,0.2,0.2,0.4,0.3
					c0.1,0.1,0.3,0.1,0.5,0.1c0.2,0,0.3,0,0.5,0c0.2,0,0.3-0.1,0.4-0.2c0.1-0.1,0.3-0.2,0.4-0.3s0.2-0.3,0.2-0.4c0-0.2,0-0.4,0-0.6
					L94.7,138.8z"/>
				<path fill="#383433" d="M107.2,144c0.1,0,0.2,0.1,0.3,0.1c0.1,0.1,0.2,0.2,0.3,0.4l0.2,0.6l-1.3,0.5c-0.3,0.1-0.5,0.1-0.7,0
					c-0.2-0.1-0.3-0.3-0.4-0.5l-1.2-3.1c-0.1-0.4-0.3-0.6-0.6-0.8c-0.2-0.1-0.5-0.2-0.9,0l-1,0.4c-0.1,0.1-0.2,0.2-0.1,0.3l1.2,3.3
					c0,0.1,0.1,0.2,0.1,0.2c0,0,0.1,0.1,0.2,0.1c0.1,0,0.2,0.1,0.4,0.2c0.1,0.1,0.2,0.2,0.3,0.4l0.2,0.5l-2.6,1l-0.2-0.5
					c-0.1-0.2-0.1-0.3,0-0.5c0-0.1,0.1-0.3,0.2-0.4c0-0.1,0-0.1,0.1-0.2c0-0.1,0-0.1,0-0.2l-3.3-8.9c0-0.1-0.1-0.1-0.1-0.2
					s-0.1-0.1-0.2-0.1c-0.1,0-0.2-0.1-0.3-0.2c-0.1-0.1-0.2-0.2-0.3-0.5l-0.2-0.5l3.3-1.2c0.5-0.2,0.9-0.2,1.2-0.2
					c0.4,0,0.7,0.1,1,0.3c0.3,0.2,0.5,0.4,0.8,0.7c0.2,0.3,0.4,0.6,0.5,1l0.6,1.6c0.1,0.3,0.2,0.7,0.1,1c0,0.3-0.1,0.6-0.3,0.9
					c-0.1,0.1,0,0.2,0.1,0.3c0.3,0.1,0.6,0.3,0.8,0.5c0.2,0.3,0.4,0.6,0.6,1l0.9,2.3c0,0.1,0.1,0.2,0.1,0.2
					C107,144,107.1,144,107.2,144z M102.4,136.5c-0.1-0.4-0.3-0.6-0.6-0.8c-0.2-0.2-0.5-0.2-0.9-0.1L100,136
					c-0.2,0.1-0.2,0.2-0.2,0.3l1.4,3.8c0,0.1,0.1,0.1,0.1,0.1c0.1,0,0.1,0,0.1,0l1-0.4c0.3-0.1,0.5-0.3,0.6-0.6c0.1-0.3,0-0.6-0.1-1
					L102.4,136.5z"/>
				<path fill="#383433" d="M115.5,139.7c0.1,0,0.3,0,0.4,0.1s0.2,0.2,0.4,0.4l0.3,0.6l-0.3,0.2l-0.7,0.4c-0.1,0.1-0.2,0.1-0.3,0.1
					c-0.1,0-0.2,0-0.3,0c-0.1,0-0.2,0-0.3-0.1c-0.1,0-0.2-0.1-0.4-0.2c-0.1,0-0.2-0.1-0.3-0.2c-0.1-0.1-0.3-0.2-0.5-0.4
					s-0.4-0.3-0.6-0.5c-0.2-0.2-0.5-0.3-0.7-0.5c-0.5-0.4-1.1-0.8-1.8-1.3l0,0.6l1.4,2.6c0,0.1,0.1,0.1,0.1,0.2c0,0,0.1,0,0.2,0.1
					c0.1,0,0.2,0.1,0.4,0.1c0.1,0.1,0.3,0.2,0.3,0.4l0.2,0.4l-2.5,1.3l-0.2-0.4c-0.1-0.2-0.1-0.3-0.1-0.5c0-0.2,0.1-0.3,0.1-0.4
					c0-0.1,0-0.1,0-0.2s0-0.1,0-0.2l-4.5-8.4c-0.1-0.1-0.1-0.1-0.1-0.2c0,0-0.1,0-0.2-0.1c-0.1,0-0.2-0.1-0.4-0.1
					c-0.1-0.1-0.3-0.2-0.3-0.4l-0.2-0.5l2.5-1.3l0.2,0.5c0.1,0.2,0.1,0.3,0.1,0.5s-0.1,0.3-0.1,0.4c0,0.1-0.1,0.1-0.1,0.2
					c0,0.1,0,0.1,0.1,0.2l1.5,2.8l0.1-4.7c0-0.1,0-0.3,0-0.4c0-0.1,0.1-0.2,0.1-0.4c0.1-0.1,0.2-0.2,0.3-0.3l0.9-0.5l0.3,0.6
					c0.1,0.2,0.1,0.4,0.1,0.6c-0.1,0.2-0.1,0.3-0.2,0.4c-0.1,0.1-0.1,0.2-0.1,0.2c0,0.1,0,0.2,0,0.3c0,0,0,0.2,0,0.4
					c0,0.2,0,0.4,0,0.7c0,0.3,0,0.6,0,0.9s0,0.7,0,1c0,0.3,0,0.6,0,0.8c0,0.2,0,0.4,0,0.5c0,0.1,0,0.1,0,0.2c0,0,0.1,0.1,0.1,0.2
					c0,0,0.1,0.1,0.2,0.2c0.1,0.1,0.3,0.2,0.5,0.4c0.2,0.1,0.4,0.3,0.7,0.5c0.3,0.2,0.5,0.4,0.8,0.6c0.6,0.4,1.3,0.9,2.1,1.5
					c0.1,0.1,0.2,0.1,0.2,0.1S115.4,139.7,115.5,139.7z"/>
			</g>
			<g>
				<path fill="#383433" d="M43.3,19.8l0.3,0.4c0.1,0.2,0.2,0.3,0.1,0.5c0,0.2,0,0.3-0.1,0.4c0,0.1,0,0.1,0,0.2c0,0.1,0,0.1,0.1,0.2
					l5.8,8.9c0.1,0.1,0.1,0.2,0.1,0.3c0,0.1-0.1,0.2-0.2,0.3l-0.8,0.5c-0.1,0.1-0.2,0.1-0.4,0c-0.1-0.1-0.3-0.2-0.4-0.3
					c0,0-0.2-0.2-0.6-0.4c-0.3-0.3-0.7-0.6-1.2-0.9c-0.4-0.4-0.9-0.8-1.4-1.2c-0.5-0.4-1-0.8-1.4-1.1c-0.4-0.4-0.8-0.6-1.1-0.9
					c-0.3-0.2-0.4-0.4-0.4-0.4c0,0,0,0-0.1,0c0,0,0,0,0,0.1l3.5,5.4c0.1,0.1,0.1,0.2,0.2,0.2c0.1,0,0.1,0,0.2,0c0.1,0,0.2,0,0.4,0.1
					c0.1,0.1,0.3,0.2,0.4,0.3l0.3,0.4l-2.2,1.5l-0.3-0.4c-0.1-0.2-0.2-0.3-0.1-0.5c0-0.2,0-0.3,0.1-0.4c0-0.1,0-0.1,0-0.2
					c0-0.1,0-0.1-0.1-0.2l-5.3-8c-0.1,0-0.2,0-0.3,0c-0.1,0-0.2-0.1-0.3-0.1c-0.1-0.1-0.2-0.2-0.3-0.3l-0.3-0.5l1.6-1.1
					c0.1-0.1,0.2-0.1,0.3-0.1c0.1,0,0.2,0.1,0.3,0.1c0,0,0.2,0.1,0.5,0.4c0.3,0.2,0.7,0.5,1.1,0.9s0.9,0.7,1.4,1.2
					c0.5,0.4,1,0.8,1.5,1.2s0.9,0.7,1.2,1c0.4,0.3,0.6,0.5,0.7,0.6c0,0,0,0,0.1,0c0,0,0,0,0,0l-3.7-5.6c-0.1-0.1-0.1-0.2-0.2-0.2
					c-0.1,0-0.1,0-0.2,0c-0.1,0-0.2,0-0.4-0.1c-0.1-0.1-0.3-0.2-0.4-0.3l-0.3-0.4L43.3,19.8z"/>
				<path fill="#383433" d="M52.7,27.4L52.7,27.4c0.1,0.1,0.1,0.2,0.2,0.2c0.1,0,0.1,0,0.2,0.1c0.1,0,0.2,0.1,0.4,0.1
					s0.2,0.2,0.3,0.4l0.2,0.5l-2.5,1.3l-0.2-0.5c-0.1-0.2-0.1-0.3-0.1-0.5c0-0.1,0.1-0.3,0.1-0.4c0-0.1,0.1-0.1,0.1-0.2
					c0-0.1,0-0.1-0.1-0.2l0,0l-4.3-8.4c-0.1-0.1-0.1-0.2-0.1-0.2c0,0-0.1,0-0.2-0.1c-0.1,0-0.2-0.1-0.4-0.1
					c-0.1-0.1-0.2-0.2-0.3-0.4l-0.2-0.4l2.5-1.3l0.2,0.4c0.1,0.2,0.1,0.3,0.1,0.5c0,0.2-0.1,0.3-0.1,0.4c0,0.1,0,0.1-0.1,0.2
					c0,0.1,0,0.1,0.1,0.2L52.7,27.4z"/>
				<path fill="#383433" d="M60.9,25.6c0,0.1,0,0.2-0.1,0.2l-0.1,0.1c-0.1,0-0.1,0-0.1,0c0,0-0.1,0-0.1,0c-0.2-0.1-0.3-0.2-0.4-0.2
					c-0.1,0-0.2,0.1-0.2,0.2c-0.1,0.1-0.2,0.2-0.3,0.3c-0.1,0.1-0.3,0.2-0.4,0.3c-0.2,0.1-0.3,0.2-0.5,0.3c-0.2,0.1-0.3,0.2-0.5,0.2
					c-0.8,0.3-1.4,0.3-2,0.1c-0.6-0.2-1.1-0.7-1.4-1.5l-2.9-7.3c-0.2-0.4-0.2-0.8-0.2-1.1c0-0.4,0.1-0.7,0.3-1
					c0.2-0.3,0.4-0.5,0.7-0.8c0.3-0.2,0.6-0.4,1-0.6c0.4-0.2,0.8-0.2,1.1-0.3s0.7,0,1.1,0.1c0.3,0.1,0.6,0.3,0.9,0.5
					c0.3,0.2,0.5,0.6,0.6,1l0.4,1.1l-0.7,0.3c-0.1,0-0.2,0-0.3,0s-0.2,0-0.3,0c-0.1,0-0.2-0.1-0.3-0.1c-0.1-0.1-0.2-0.1-0.2-0.3
					l-0.1-0.3c-0.1-0.2-0.2-0.4-0.3-0.5c-0.1-0.1-0.3-0.2-0.4-0.2c-0.2,0-0.3-0.1-0.5,0c-0.2,0-0.3,0.1-0.5,0.1
					c-0.3,0.1-0.5,0.3-0.7,0.6c-0.2,0.3-0.2,0.6,0,1l2.8,7.2c0.2,0.4,0.4,0.7,0.7,0.8c0.3,0.1,0.6,0.1,0.9-0.1
					c0.1-0.1,0.3-0.1,0.4-0.2c0.1-0.1,0.2-0.2,0.3-0.4c0.1-0.1,0.1-0.3,0.2-0.5c0-0.2,0-0.4-0.1-0.6l-0.8-2.1
					c-0.1-0.2-0.2-0.3-0.4-0.3c-0.2,0-0.3,0-0.4-0.1c-0.1-0.1-0.2-0.3-0.4-0.6l-0.1-0.4l1.9-0.7c0.1,0,0.2,0,0.3,0
					c0.1,0,0.2,0.1,0.3,0.2L60.9,25.6z"/>
				<path fill="#383433" d="M68.2,22.1L68.2,22.1c0,0.1,0.1,0.2,0.1,0.2c0,0,0.1,0.1,0.2,0.1c0.1,0,0.2,0.1,0.3,0.2
					c0.1,0.1,0.2,0.2,0.2,0.4l0.1,0.5l-2.8,0.7l-0.1-0.5c0-0.2,0-0.4,0-0.5s0.1-0.3,0.2-0.3c0,0,0.1-0.1,0.1-0.1c0-0.1,0-0.1,0-0.2
					l-1-3.9c0-0.2-0.1-0.2-0.3-0.2l-2,0.5c-0.2,0-0.2,0.1-0.2,0.3l0.9,3.9l0,0l0,0c0,0.1,0.1,0.2,0.1,0.2c0,0,0.1,0.1,0.1,0.1
					c0.1,0,0.2,0.1,0.3,0.2s0.2,0.2,0.2,0.4l0.1,0.5l-2.7,0.7l-0.1-0.5c0-0.2,0-0.4,0-0.5c0.1-0.1,0.1-0.3,0.2-0.3
					c0,0,0.1-0.1,0.1-0.1c0-0.1,0-0.1,0-0.2l0,0l-2.2-9.2c0-0.1-0.1-0.2-0.1-0.2S60,14,60,14c-0.1,0-0.2-0.1-0.3-0.2
					c-0.1-0.1-0.2-0.2-0.2-0.4l-0.1-0.5l2.7-0.7l0.1,0.5c0,0.2,0,0.4,0,0.5c-0.1,0.1-0.1,0.3-0.2,0.3c0,0.1-0.1,0.1-0.1,0.2
					c0,0.1,0,0.1,0,0.2l0.8,3.4c0,0.1,0.1,0.1,0.1,0.2c0.1,0,0.1,0,0.2,0l2-0.5c0.1,0,0.1-0.1,0.2-0.1c0-0.1,0-0.1,0-0.2l-0.8-3.4
					c0-0.1-0.1-0.2-0.1-0.2S64.1,13,64,13c-0.1,0-0.2-0.1-0.3-0.2c-0.1-0.1-0.2-0.2-0.2-0.4l-0.1-0.5l2.8-0.7l0.1,0.5
					c0,0.2,0,0.4,0,0.5c-0.1,0.1-0.1,0.3-0.2,0.3c0,0.1-0.1,0.1-0.1,0.2c0,0.1,0,0.1,0,0.2L68.2,22.1z"/>
				<path fill="#383433" d="M76.2,10.1c0.1,0.1,0.2,0.3,0.2,0.6l0.1,0.5l0.1,0.9l-0.9,0.1c-0.2,0-0.3,0-0.4-0.1
					c-0.1-0.1-0.2-0.2-0.2-0.4c0-0.1-0.1-0.2-0.2-0.2l-0.8,0.1c-0.1,0-0.1,0-0.2,0.1s-0.1,0.1-0.1,0.2l0.9,9.4c0,0.1,0,0.2,0.1,0.2
					c0,0,0.1,0.1,0.1,0.1c0.1,0.1,0.2,0.1,0.3,0.3c0.1,0.1,0.2,0.3,0.2,0.5l0,0.5l-2.8,0.3l0-0.5c0-0.2,0-0.4,0.1-0.5
					c0.1-0.1,0.2-0.2,0.2-0.3c0,0,0.1-0.1,0.1-0.1c0,0,0-0.1,0-0.2L72.2,12c0-0.1,0-0.1-0.1-0.2c-0.1,0-0.1,0-0.2,0l-0.7,0.1
					c0,0-0.1,0-0.2,0.1s-0.1,0.1-0.1,0.2c0,0.2,0,0.3-0.1,0.4c-0.1,0.1-0.3,0.2-0.5,0.2l-0.8,0.1l-0.1-1l0-0.5c0-0.3,0-0.4,0.2-0.6
					s0.3-0.2,0.6-0.2l5.5-0.5C75.9,10,76.1,10,76.2,10.1z"/>
				<path fill="#383433" d="M86.3,10.3c0.1,0.1,0.1,0.3,0.1,0.6l0,0.5l0,0.9l-0.9,0c-0.2,0-0.3-0.1-0.4-0.2C85,12.1,85,11.9,85,11.8
					c0-0.1-0.1-0.2-0.2-0.2l-0.8,0c-0.1,0-0.1,0-0.2,0.1c-0.1,0-0.1,0.1-0.1,0.2l-0.4,9.4c0,0.1,0,0.2,0,0.2c0,0,0.1,0.1,0.1,0.1
					c0.1,0.1,0.2,0.2,0.2,0.3c0.1,0.1,0.1,0.3,0.1,0.5l0,0.5L81,22.7l0-0.5c0-0.2,0.1-0.3,0.2-0.5c0.1-0.1,0.2-0.2,0.3-0.3
					c0,0,0.1-0.1,0.1-0.1c0,0,0.1-0.1,0.1-0.2l0.4-9.4c0-0.1,0-0.1-0.1-0.2c-0.1,0-0.1-0.1-0.2-0.1l-0.7,0c0,0-0.1,0-0.2,0
					c-0.1,0-0.1,0.1-0.1,0.2c0,0.2-0.1,0.3-0.2,0.4c-0.1,0.1-0.3,0.1-0.6,0.1l-0.8,0l0-1l0-0.5c0-0.3,0.1-0.4,0.2-0.5
					c0.1-0.1,0.4-0.1,0.7-0.1l5.5,0.2C86.1,10.2,86.3,10.2,86.3,10.3z"/>
				<path fill="#383433" d="M89.7,21.9L89.7,21.9c0,0.1,0,0.2,0,0.3s0.1,0.1,0.1,0.1c0.1,0.1,0.2,0.2,0.2,0.3s0.1,0.3,0.1,0.5
					L90,23.6l-2.8-0.4l0.1-0.5c0-0.2,0.1-0.3,0.2-0.4c0.1-0.1,0.2-0.2,0.3-0.3c0.1,0,0.1-0.1,0.1-0.1c0,0,0.1-0.1,0.1-0.2l0,0
					l1.4-9.3c0-0.1,0-0.2,0-0.2c0,0-0.1-0.1-0.1-0.2c-0.1-0.1-0.2-0.2-0.2-0.3C89,11.4,89,11.3,89,11.1l0.1-0.5l2.8,0.4l-0.1,0.5
					c0,0.2-0.1,0.3-0.2,0.5c-0.1,0.1-0.2,0.2-0.3,0.2c-0.1,0-0.1,0.1-0.1,0.1c0,0-0.1,0.1-0.1,0.2L89.7,21.9z"/>
				<path fill="#383433" d="M104.4,15.2c-0.1,0.1-0.2,0.2-0.3,0.2c-0.1,0.1-0.2,0.1-0.3,0.1l-2.6,9.2c0,0.1,0,0.2,0,0.2
					s0.1,0.1,0.1,0.2c0.1,0.1,0.1,0.2,0.2,0.4c0.1,0.1,0,0.3,0,0.5l-0.2,0.5l-2.7-0.8l0.2-0.5c0.1-0.2,0.1-0.3,0.3-0.4
					c0.1-0.1,0.2-0.2,0.3-0.2c0.1,0,0.1,0,0.2-0.1c0,0,0.1-0.1,0.1-0.2l1.9-6.7c0,0,0,0,0-0.1c0,0-0.1,0-0.1,0
					c-0.6,0.6-1.2,1.2-1.6,1.7c-0.2,0.2-0.4,0.4-0.6,0.6s-0.4,0.4-0.6,0.6s-0.3,0.3-0.4,0.4C98.1,20.9,98,21,98,21
					c-0.1,0.1-0.1,0.1-0.3,0.1c-0.1,0-0.2,0-0.4,0c-0.1,0-0.2-0.1-0.3-0.2c-0.1-0.1-0.1-0.1-0.2-0.2c0,0,0-0.1-0.1-0.3
					c0-0.2-0.1-0.4-0.1-0.6c-0.1-0.2-0.1-0.5-0.2-0.8s-0.1-0.6-0.2-0.9c-0.1-0.7-0.3-1.5-0.5-2.3c0,0,0,0,0,0c0,0,0,0,0,0.1
					l-1.9,6.7l0,0c0,0.1,0,0.2,0,0.2c0,0.1,0,0.1,0.1,0.1c0.1,0.1,0.1,0.2,0.2,0.4c0.1,0.1,0.1,0.3,0,0.5l-0.1,0.5l-2.7-0.8l0.1-0.5
					c0.1-0.2,0.1-0.3,0.3-0.4s0.2-0.2,0.3-0.2c0.1,0,0.1,0,0.2-0.1c0,0,0.1-0.1,0.1-0.2l2.7-9.3c-0.1-0.1-0.2-0.1-0.2-0.2
					c-0.1-0.1-0.1-0.2-0.1-0.3c0-0.1,0-0.3,0-0.5l0.1-0.5l1.7,0.5c0.1,0,0.1,0.1,0.2,0.1c0.1,0.1,0.1,0.1,0.1,0.2
					c0,0.2,0.1,0.5,0.1,0.9c0.1,0.4,0.1,0.8,0.2,1.3c0.1,0.5,0.2,1,0.3,1.5c0.1,0.5,0.2,0.9,0.3,1.4c0.1,0.4,0.2,0.8,0.2,1
					s0.1,0.4,0.1,0.5c0,0.1,0,0.1,0.1,0.1s0.1,0,0.1,0c0,0,0.1-0.1,0.2-0.2c0.1-0.1,0.3-0.3,0.5-0.6s0.5-0.5,0.7-0.8
					c0.3-0.3,0.6-0.6,0.8-0.9l2.3-2.4c0.1-0.1,0.1-0.1,0.2-0.2c0.1,0,0.2,0,0.2,0l1.6,0.5l-0.1,0.5
					C104.6,14.9,104.5,15.1,104.4,15.2z"/>
				<path fill="#383433" d="M104.9,26.5L104.9,26.5c-0.1,0.1-0.1,0.2-0.1,0.3c0,0.1,0,0.1,0.1,0.2c0.1,0.1,0.1,0.2,0.1,0.4
					c0,0.2,0,0.3-0.1,0.5l-0.2,0.5l-2.6-1.1l0.2-0.5c0.1-0.2,0.2-0.3,0.3-0.4c0.1-0.1,0.2-0.1,0.4-0.2c0.1,0,0.1,0,0.2-0.1
					c0,0,0.1-0.1,0.1-0.2l0,0l3.8-8.6c0-0.1,0.1-0.2,0.1-0.2s0-0.1-0.1-0.2c-0.1-0.1-0.1-0.2-0.1-0.4s0-0.3,0.1-0.5l0.2-0.5l2.6,1.1
					l-0.2,0.5c-0.1,0.2-0.2,0.3-0.3,0.4s-0.3,0.1-0.4,0.2c-0.1,0-0.1,0-0.2,0.1s-0.1,0.1-0.1,0.2L104.9,26.5z"/>
				<path fill="#383433" d="M118.4,21.1l-0.2,0.4c-0.1,0.2-0.2,0.3-0.4,0.3s-0.3,0.1-0.4,0.1c-0.1,0-0.1,0-0.2,0.1
					c0,0-0.1,0.1-0.2,0.2l-5.3,9.3c-0.1,0.1-0.1,0.2-0.2,0.2c-0.1,0-0.2,0-0.3,0l-0.9-0.5c-0.1-0.1-0.2-0.2-0.2-0.3
					c0-0.1,0-0.3,0.1-0.5c0-0.1,0.1-0.3,0.1-0.7c0.1-0.4,0.2-0.9,0.3-1.4c0.1-0.6,0.2-1.2,0.4-1.8c0.1-0.6,0.3-1.2,0.4-1.8
					c0.1-0.5,0.2-1,0.3-1.4c0.1-0.4,0.1-0.6,0.1-0.6c0,0,0,0,0-0.1c0,0,0,0-0.1,0.1l-3.2,5.6c-0.1,0.1-0.1,0.2-0.1,0.2
					c0,0.1,0,0.1,0.1,0.2c0,0.1,0.1,0.2,0.1,0.4s0,0.3-0.1,0.5l-0.3,0.4l-2.3-1.3l0.3-0.4c0.1-0.2,0.2-0.3,0.4-0.3
					c0.1-0.1,0.3-0.1,0.4-0.1c0.1,0,0.1,0,0.2,0c0.1,0,0.1-0.1,0.2-0.2l4.7-8.3c-0.1-0.1-0.1-0.2-0.2-0.3c0-0.1,0-0.2,0-0.3
					c0-0.1,0.1-0.3,0.2-0.4l0.3-0.5l1.7,0.9c0.1,0.1,0.2,0.1,0.2,0.2c0,0.1,0,0.2,0,0.3c0,0-0.1,0.2-0.1,0.6s-0.2,0.8-0.3,1.4
					c-0.1,0.6-0.2,1.2-0.4,1.8s-0.3,1.3-0.4,1.9s-0.3,1.1-0.4,1.6s-0.2,0.8-0.2,0.9c0,0,0,0.1,0,0.1c0,0,0,0,0,0l3.3-5.9
					c0.1-0.1,0.1-0.2,0.1-0.2c0-0.1,0-0.1,0-0.2c0-0.1-0.1-0.2-0.1-0.4c0-0.2,0-0.3,0.1-0.5l0.2-0.4L118.4,21.1z"/>
				<path fill="#383433" d="M118,36.5c-0.1,0.1-0.2,0.1-0.3,0l-0.1-0.1c0,0-0.1-0.1-0.1-0.1c0,0,0-0.1,0-0.1c0-0.2,0-0.4-0.1-0.4
					c-0.1-0.1-0.2-0.1-0.3-0.1c-0.1,0-0.3-0.1-0.4-0.1s-0.3-0.1-0.5-0.2s-0.3-0.2-0.5-0.3c-0.2-0.1-0.3-0.2-0.4-0.3
					c-0.6-0.5-1-1-1.2-1.7c-0.1-0.6,0-1.3,0.6-2l4.8-6.3c0.3-0.3,0.5-0.6,0.9-0.8c0.3-0.2,0.6-0.3,1-0.3s0.7,0,1,0.2s0.7,0.3,1,0.6
					s0.6,0.5,0.8,0.8s0.4,0.6,0.5,0.9c0.1,0.3,0.1,0.7,0,1c-0.1,0.4-0.2,0.7-0.5,1l-0.7,0.9l-0.6-0.5c-0.1,0-0.1-0.1-0.2-0.2
					c-0.1-0.1-0.1-0.2-0.2-0.3c0-0.1-0.1-0.2-0.1-0.3c0-0.1,0-0.2,0.1-0.3l0.2-0.3c0.1-0.2,0.2-0.4,0.2-0.5c0-0.2,0-0.3,0-0.5
					c0-0.2-0.1-0.3-0.2-0.4c-0.1-0.1-0.2-0.2-0.3-0.3c-0.3-0.2-0.5-0.3-0.8-0.3c-0.3,0-0.6,0.2-0.9,0.5l-4.7,6.2
					c-0.3,0.4-0.4,0.7-0.3,1s0.3,0.5,0.5,0.7c0.1,0.1,0.3,0.2,0.4,0.2c0.2,0.1,0.3,0.1,0.5,0.1c0.2,0,0.3,0,0.5-0.1
					c0.2-0.1,0.3-0.2,0.4-0.4l1.4-1.8c0.1-0.2,0.1-0.3,0-0.5c-0.1-0.1-0.2-0.3-0.1-0.4s0.1-0.4,0.3-0.6l0.2-0.3l1.6,1.2
					c0.1,0,0.1,0.1,0.2,0.2s0,0.2-0.1,0.4L118,36.5z"/>
			</g>
			<path fill="#383433" d="M79.3,47.6c0.3,0,0.5-0.2,0.5-0.5v-4c0-0.3-0.2-0.5-0.5-0.5c-0.3,0-0.5,0.2-0.5,0.5v4
				C78.8,47.4,79,47.6,79.3,47.6z"/>
			<path fill="#383433" d="M90.1,47.4l-2.8,2.8c-0.2,0.2-0.2,0.5,0,0.7c0.1,0.1,0.2,0.1,0.4,0.1c0.1,0,0.3,0,0.4-0.1l2.8-2.8
				c0.2-0.2,0.2-0.5,0-0.7C90.6,47.2,90.2,47.2,90.1,47.4z"/>
			<path fill="#383433" d="M68.8,47.4c-0.2,0.2-0.2,0.5,0,0.7l2.8,2.8c0.1,0.1,0.2,0.1,0.4,0.1s0.3,0,0.4-0.1c0.2-0.2,0.2-0.5,0-0.7
				l-2.8-2.8C69.3,47.2,69,47.2,68.8,47.4z"/>
			<path fill="#383433" d="M92.8,58.1h-5c-0.1-4.3-3.7-7.8-8-7.8c-4.3,0-7.9,3.5-8,7.8h-5c-0.3,0-0.5,0.2-0.5,0.5
				c0,0.3,0.2,0.5,0.5,0.5h26c0.3,0,0.5-0.2,0.5-0.5C93.3,58.3,93.1,58.1,92.8,58.1z M79.8,51.4c3.8,0,6.9,3,7,6.8h-14
				C72.9,54.4,76,51.4,79.8,51.4z"/>
			<g>
				<path fill="#383433" d="M79.5,111.6c-3.8,0-8.3-3.1-8.3-6.8v-3.5c0-0.6,0.5-1,1-1H74v0.9h-1.7c-0.1,0-0.1,0.1-0.1,0.1v3.5
					c0,3.2,4.1,5.9,7.4,5.9c3.3,0,7.4-2.7,7.4-5.9v-3.6l-1.6,0v-0.9h1.6c0.5,0,0.9,0.4,0.9,0.9v3.6
					C87.8,108.6,83.3,111.6,79.5,111.6z"/>
			</g>
			<g>
				<path fill="#383433" d="M83.1,102.2c-0.1-0.3-0.2-0.6-0.3-0.7h-7.9c-0.8,0-1.5-0.7-1.5-1.5s0.7-1.5,1.5-1.5h9.6
					c0.8,0,1.5,0.7,1.5,1.5v0.5h-0.6V100h-0.3c0-0.3-0.3-0.6-0.6-0.6h-9.6c-0.3,0-0.6,0.3-0.6,0.6s0.3,0.6,0.6,0.6H83
					c0.2,0,0.6,0,1.1,1.4L83.1,102.2z"/>
			</g>
			<g>
				<path fill="#383433" d="M84.5,103c-0.8,0-1.5-0.7-1.5-1.5h0.9c0,0.3,0.3,0.6,0.6,0.6c0.3,0,0.6-0.3,0.6-0.6V100
					c0-0.3-0.3-0.6-0.6-0.6v-0.9c0.8,0,1.5,0.7,1.5,1.5v1.5C86,102.3,85.3,103,84.5,103z"/>
			</g>
			<g>
				<path fill="#383433" d="M76.9,97c-0.3,0-0.5-0.2-0.5-0.5v-2.4c0-0.3,0.2-0.5,0.5-0.5s0.5,0.2,0.5,0.5v2.4
					C77.4,96.8,77.2,97,76.9,97z"/>
			</g>
			<g>
				<path fill="#383433" d="M82.1,97c-0.3,0-0.5-0.2-0.5-0.5v-2.4c0-0.3,0.2-0.5,0.5-0.5c0.3,0,0.5,0.2,0.5,0.5v2.4
					C82.6,96.8,82.4,97,82.1,97z"/>
			</g>
			<g>
				<path fill="#383433" d="M79.5,97c-0.3,0-0.5-0.2-0.5-0.5v-4.8c0-0.3,0.2-0.5,0.5-0.5s0.5,0.2,0.5,0.5v4.8
					C79.9,96.8,79.7,97,79.5,97z"/>
			</g>
			<g>
				<path fill="#383433" d="M71.4,107.6c-1.7,0-3.1-1.4-3.1-3.1c0-1.7,1.4-3.1,3.1-3.1c0.1,0,0.2,0,0.3,0c0.3,0,0.4,0.2,0.4,0.5
					c0,0.3-0.2,0.4-0.5,0.4c-0.1,0-0.1,0-0.2,0c-1.2,0-2.2,1-2.2,2.2c0,1.2,1,2.2,2.2,2.2c0.2,0,0.5,0,0.7-0.1
					c0.2-0.1,0.5,0.1,0.6,0.3c0.1,0.2-0.1,0.5-0.3,0.6C72,107.6,71.7,107.6,71.4,107.6z"/>
			</g>
		</g>
	</g>
</g>
<g id="logo_1_">
</g>
</svg>
